<!-- assets/icons/whatsapp.svg -->
<svg xmlns="http://www.w3.org/2000/svg" viewBox="0 0 448 512">
  <path fill="#25d366" d="M380.9 97.1C339-3.2 197.4-32.1 97.1 9S-32.1 250.6 9 350.9L0 480l129.1-9c100.3 41.1 218.9-29.7 259.8-129.1s3.2-197.4-8-244.8zM224 416c-47.1 0-90.8-18.3-123.6-51.3S49 271.1 49 224s18.3-90.8 51.3-123.6S176.9 49 224 49s90.8 18.3 123.6 51.3S399 176.9 399 224s-18.3 90.8-51.3 123.6S271.1 416 224 416zm62.5-134.2l-23.7-6.3c-3.2-.9-6.6 1.1-7.5 4.3-2.4 8.7-5.1 16.7-8.2 24-2.2 5.2-4.6 6-7.6 5.9-18.3-.7-40.6-17.7-56.4-33.5s-32.8-38.1-33.5-56.4c-.1-3 .7-5.4 5.9-7.6 7.3-3.1 15.3-5.8 24-8.2 3.2-.9 5.2-4.3 4.3-7.5l-6.3-23.7c-.8-3-3.8-5.1-7-5.1h-32.1c-3.9 0-7.3 2.8-7.9 6.6-7.1 43.2 10.4 96.4 63.4 149.4s106.2 70.5 149.4 63.4c3.8-.6 6.6-4 6.6-7.9v-32.1c0-3.2-2.1-6.2-5.1-7z"/>
</svg>
